<svg width="32" height="32" viewBox="0 0 32 32" fill="none" xmlns="http://www.w3.org/2000/svg">
<path d="M22.4541 2.66797C24.8623 2.66797 26.0665 2.66805 26.9863 3.13672C27.7954 3.54897 28.453 4.20657 28.8652 5.01562C29.3339 5.93545 29.334 7.13963 29.334 9.54785V22.4541C29.334 24.8623 29.3339 26.0665 28.8652 26.9863C28.453 27.7954 27.7954 28.453 26.9863 28.8652C26.0665 29.3339 24.8623 29.334 22.4541 29.334H9.54785C7.13963 29.334 5.93545 29.3339 5.01562 28.8652C4.20657 28.453 3.54897 27.7954 3.13672 26.9863C2.66805 26.0665 2.66797 24.8623 2.66797 22.4541V9.54785C2.66797 7.13963 2.66805 5.93545 3.13672 5.01562C3.54897 4.20657 4.20657 3.54897 5.01562 3.13672C5.93545 2.66805 7.13963 2.66797 9.54785 2.66797H22.4541ZM15.6201 6.47754C12.42 6.47754 10.82 6.47788 9.59766 7.10059C8.52244 7.64843 7.64746 8.52244 7.09961 9.59766C6.47692 10.8199 6.47754 12.4202 6.47754 15.6201V16.3818C6.47754 19.5821 6.47681 21.1829 7.09961 22.4053C7.64746 23.4805 8.52244 24.3545 9.59766 24.9023C10.82 25.525 12.4201 25.5254 15.6201 25.5254H16.3818C19.5818 25.5254 21.182 25.525 22.4043 24.9023C23.4795 24.3545 24.3545 23.4805 24.9023 22.4053C25.5252 21.1829 25.5244 19.5821 25.5244 16.3818V15.6201C25.5244 12.4202 25.5251 10.82 24.9023 9.59766C24.3545 8.52244 23.4795 7.64843 22.4043 7.10059C21.182 6.47791 19.5819 6.47754 16.3818 6.47754H15.6201ZM16.3818 8.38184C18.0134 8.38184 19.1232 8.38406 19.9805 8.4541C20.8152 8.52234 21.2422 8.64609 21.54 8.79785C22.2567 9.16305 22.8399 9.74527 23.2051 10.4619C23.3569 10.7598 23.4806 11.1874 23.5488 12.0225C23.6189 12.8797 23.6201 13.9888 23.6201 15.6201V16.3818C23.6201 18.0134 23.6189 19.1232 23.5488 19.9805C23.4806 20.8151 23.3568 21.2422 23.2051 21.54C22.8399 22.2568 22.2568 22.8398 21.54 23.2051C21.2422 23.3568 20.8152 23.4806 19.9805 23.5488C19.1232 23.6189 18.0134 23.6201 16.3818 23.6201H15.6201C13.9888 23.6201 12.8797 23.6188 12.0225 23.5488C11.1874 23.4806 10.7598 23.3569 10.4619 23.2051C9.74516 22.8398 9.16209 22.2568 8.79688 21.54C8.64518 21.2422 8.52133 20.8151 8.45312 19.9805C8.38308 19.1232 8.38184 18.0134 8.38184 16.3818V15.6201C8.38184 13.9888 8.38309 12.8797 8.45312 12.0225C8.52135 11.1874 8.64509 10.7598 8.79688 10.4619C9.16208 9.74527 9.74527 9.16305 10.4619 8.79785C10.7598 8.64606 11.1874 8.52233 12.0225 8.4541C12.8797 8.38409 13.9888 8.38184 15.6201 8.38184H16.3818ZM16.001 11.2393C13.3712 11.2393 11.2395 13.3712 11.2393 16.001C11.2393 18.6309 13.3711 20.7636 16.001 20.7637C18.6309 20.7637 20.7627 18.6309 20.7627 16.001C20.7625 13.3712 18.6308 11.2393 16.001 11.2393ZM16.001 13.1445C17.5788 13.1445 18.8582 14.4232 18.8584 16.001C18.8584 17.5789 17.5789 18.8584 16.001 18.8584C14.423 18.8584 13.1436 17.5789 13.1436 16.001C13.1438 14.4232 14.4232 13.1446 16.001 13.1445ZM21.2393 9.33496C20.4503 9.33496 19.8105 9.97469 19.8105 10.7637C19.8108 11.5525 20.4504 12.1914 21.2393 12.1914C22.028 12.1913 22.6677 11.5524 22.668 10.7637C22.668 9.97474 22.0282 9.33504 21.2393 9.33496Z" fill="#F7F9FC"/>
</svg>
