<svg width="61" height="38" viewBox="0 0 61 38" fill="none" xmlns="http://www.w3.org/2000/svg">
<path d="M38.6893 3.99219H22.2188V33.3436H38.6893V3.99219Z" fill="#FF5F00"/>
<path d="M23.2664 18.6666C23.2638 15.8399 23.9098 13.0496 25.1553 10.507C26.4009 7.9644 28.2135 5.73615 30.4559 3.99093C27.679 1.82645 24.3441 0.480396 20.8323 0.10661C17.3205 -0.267175 13.7735 0.346381 10.5967 1.87718C7.41986 3.40797 4.74145 5.79424 2.86758 8.76322C0.993711 11.7322 0 15.1641 0 18.6666C0 22.1692 0.993711 25.6011 2.86758 28.5701C4.74145 31.539 7.41986 33.9253 10.5967 35.4561C13.7735 36.9869 17.3205 37.6004 20.8323 37.2267C24.3441 36.8529 27.679 35.5068 30.4559 33.3423C28.2135 31.5971 26.401 29.3689 25.1554 26.8263C23.9098 24.2837 23.2638 21.4934 23.2664 18.6666Z" fill="#EB001B"/>
<path d="M60.9081 18.6666C60.9082 22.1691 59.9146 25.601 58.0408 28.57C56.1671 31.539 53.4887 33.9252 50.312 35.456C47.1353 36.9869 43.5883 37.6004 40.0765 37.2267C36.5648 36.8529 33.2299 35.5068 30.4531 33.3423C32.6935 31.5954 34.5047 29.3667 35.7501 26.8245C36.9955 24.2824 37.6426 21.4929 37.6426 18.6666C37.6426 15.8403 36.9955 13.0509 35.7501 10.5087C34.5047 7.96652 32.6935 5.73791 30.4531 3.99093C33.2299 1.82644 36.5648 0.480386 40.0765 0.106605C43.5883 -0.267175 47.1353 0.346408 50.312 1.87722C53.4887 3.40803 56.1671 5.7943 58.0408 8.76328C59.9146 11.7323 60.9082 15.1641 60.9081 18.6666Z" fill="#F79E1B"/>
<path d="M59.1123 30.2362V29.6353H59.3566V29.5129H58.7344V29.6353H58.9788V30.2362H59.1123ZM60.3204 30.2362V29.5117H60.1297L59.9103 30.0101L59.6908 29.5117H59.5V30.2362H59.6347V29.6897L59.8404 30.1609H59.9801L60.1858 29.6885V30.2362H60.3204Z" fill="#F79E1B"/>
</svg>
