<svg width="80" height="56" viewBox="0 0 80 56" fill="none" xmlns="http://www.w3.org/2000/svg">
<path d="M14.2809 37.9333C18.0289 37.2767 21.1245 36.7334 21.16 36.7259L21.2247 36.7123L17.6862 32.5385C15.7401 30.243 14.1478 28.3559 14.1478 28.345C14.1478 28.3244 17.8015 18.3466 17.8221 18.3111C17.8289 18.2993 20.3154 22.5563 23.8495 28.6305C27.1581 34.3173 29.8859 39.0061 29.9112 39.05L29.9573 39.1299L18.7119 39.1285L7.46648 39.127L14.2809 37.9333ZM57.4058 36.9239C55.6941 36.815 54.6985 35.8484 54.4347 34.0392C54.3645 33.5579 54.3642 33.5454 54.357 30.4208L54.3501 27.3968H55.1077H55.8653L55.8712 30.3218C55.8766 32.9581 55.88 33.2672 55.9054 33.4526C56.0085 34.2052 56.2139 34.7114 56.5635 35.0747C56.8433 35.3654 57.1709 35.5357 57.6243 35.626C57.8382 35.6686 58.4467 35.6687 58.6417 35.6262C59.1014 35.5259 59.4698 35.3275 59.7948 35.0053C60.1653 34.6381 60.4393 34.1171 60.5719 33.528L60.6166 33.3294L60.6216 30.3796L60.6266 27.4298H61.4H62.1735V32.067V36.7041H61.408H60.6425V35.9684C60.6425 35.4685 60.637 35.2345 60.6253 35.2383C60.6158 35.2415 60.5765 35.3011 60.5379 35.3709C60.2741 35.848 59.8346 36.2842 59.353 36.5471C58.7758 36.8622 58.1968 36.9741 57.4058 36.9239ZM74.7805 36.9164C74.1763 36.8713 73.54 36.6653 73.02 36.3463C71.9239 35.674 71.2754 34.5657 71.0855 33.0406C71.0198 32.5128 71.0119 31.8039 71.0667 31.3554C71.1892 30.3534 71.5863 29.3697 72.1517 28.6675C72.2967 28.4874 72.6255 28.1614 72.807 28.0176C73.2972 27.6295 73.8706 27.3581 74.4794 27.226C74.8341 27.1491 75.4588 27.1129 75.8357 27.1476C76.7824 27.2346 77.65 27.6766 78.2398 28.3723C78.8389 29.0792 79.1683 30.0669 79.2103 31.2831C79.2169 31.4737 79.2185 31.8078 79.2139 32.0257L79.2054 32.4217L75.8897 32.4259L72.574 32.4301V32.5768C72.574 33.0235 72.6835 33.5322 72.8729 33.9651C73.0361 34.3384 73.3172 34.746 73.5472 34.9432C74.019 35.3477 74.5964 35.5897 75.2283 35.648C75.4625 35.6696 76.0596 35.6469 76.3266 35.6062C77.0883 35.4901 77.8124 35.1938 78.3972 34.759C78.466 34.7079 78.5319 34.6601 78.5435 34.6528C78.5606 34.6422 78.5647 34.7759 78.5642 35.3377L78.5637 36.0357L78.407 36.1318C77.7454 36.5376 76.9876 36.7981 76.1851 36.8956C75.9456 36.9247 75.0669 36.9377 74.7805 36.9164ZM77.6662 31.029C77.6662 30.2808 77.3482 29.4496 76.8982 29.0217C76.5771 28.7162 76.189 28.5295 75.7275 28.4587C75.5092 28.4251 75.049 28.438 74.8189 28.4842C74.3323 28.5817 73.9298 28.7938 73.5788 29.1378C73.2093 29.4998 72.9323 29.9395 72.7581 30.4405C72.6955 30.6206 72.6222 30.9164 72.5995 31.0809L72.5886 31.1593H75.1274H77.6662V31.029ZM32.6893 36.6834C32.6932 36.6721 33.8191 33.7388 35.1914 30.1651L37.6864 23.6674L38.488 23.6674L39.2897 23.6673L39.3562 23.8365C39.5595 24.3534 44.3511 36.69 44.3511 36.6964C44.3511 36.7006 43.9673 36.704 43.4982 36.7039L42.6454 36.7038L41.9548 34.8804L41.2642 33.0571L38.4835 33.0571L35.7028 33.057L35.6787 33.1189C35.6654 33.1529 35.3703 33.9734 35.023 34.9421L34.3915 36.7034L33.5368 36.7037C32.8604 36.704 32.6837 36.6998 32.6893 36.6834ZM40.7566 31.6656C40.7566 31.6627 40.2919 30.4133 39.7239 28.8891C38.6612 26.0376 38.6017 25.8661 38.5178 25.4083C38.4784 25.1936 38.4585 25.1877 38.4351 25.3835C38.4184 25.5235 38.346 25.8368 38.2901 26.0106C38.2624 26.0968 37.7839 27.3993 37.2267 28.905C36.6695 30.4107 36.2137 31.649 36.2137 31.6568C36.2137 31.6645 37.2358 31.6709 38.4851 31.6709C39.7345 31.6709 40.7566 31.6685 40.7566 31.6656ZM44.8669 36.4666V36.2291L47.6373 32.4524L50.4077 28.6757L47.8994 28.6675L45.3911 28.6592L45.3868 28.028L45.3824 27.3968H49.0103H52.6382V27.61V27.8232L49.8675 31.6205C48.3436 33.709 47.0968 35.4213 47.0968 35.4256C47.0968 35.4299 48.3287 35.4334 49.8342 35.4334H52.5717V36.0687V36.7041H48.7193H44.8669V36.4666ZM65.1966 36.6931C65.1905 36.687 65.1855 34.5929 65.1855 32.0394V27.3968H65.9426H66.6998V28.3539C66.6998 28.8804 66.7062 29.3111 66.7141 29.3111C66.722 29.3111 66.7589 29.2249 66.796 29.1196C66.9663 28.637 67.2615 28.186 67.6418 27.8276C67.9845 27.5048 68.3761 27.3117 68.8382 27.2378C68.968 27.217 69.0778 27.2131 69.3374 27.2198C69.6634 27.2282 69.8339 27.2518 70.0321 27.3161L70.0945 27.3363V28.1157V28.8951L69.9156 28.8063C69.5996 28.6494 69.2879 28.5873 68.913 28.6067C68.6691 28.6193 68.509 28.6503 68.314 28.7229C67.9127 28.8722 67.5872 29.1358 67.3598 29.4956C67.0306 30.0165 66.7957 30.6861 66.7265 31.3014C66.7141 31.4119 66.7067 32.3113 66.7038 34.0843L66.6995 36.7041H65.9536C65.5433 36.7041 65.2027 36.6991 65.1966 36.6931ZM0.785156 36.6605C0.785156 36.6546 2.45245 33.7844 4.49025 30.2823L8.19535 23.9148L12.5132 20.3215C14.888 18.3451 16.8375 16.7257 16.8453 16.7227C16.8531 16.7198 16.8218 16.7978 16.7759 16.896C16.7299 16.9943 14.62 21.482 12.0873 26.8687L7.48231 36.6628L4.13373 36.667C2.29202 36.6693 0.785156 36.6663 0.785156 36.6605Z" fill="white"/>
</svg>
