<svg width="146" height="44" viewBox="0 0 146 44" fill="none" xmlns="http://www.w3.org/2000/svg">
<g filter="url(#filter0_dii_3754_36817)">
<path d="M6.43098 40.9975H13.943L22.6331 23.4433C22.6331 23.4433 32.3525 40.9975 32.7121 40.9975C33.0717 40.9975 40.0828 28.8105 40.0828 28.8105L26.2788 3.48693C23.8707 0.122857 19.5876 0.21954 17.1076 3.48693L2.5993 34.2594C0.699585 37.7722 3.68308 41 6.4285 41L6.43098 40.9975Z" fill="#01AB72"/>
</g>
<g filter="url(#filter1_dii_3754_36817)">
<path d="M33.7056 9.72392L49.9134 41H57.4985C60.22 41 62.2481 36.7481 61.1759 34.2551L46.5208 3.46275C44.141 0.096507 39.7677 0.262711 37.4598 3.46275L33.7031 9.72392H33.7056Z" fill="#036CC5"/>
</g>
<path d="M65.8242 30.6908C65.8242 27.5713 66.7968 25.0335 68.7418 23.0772C70.6869 21.121 73.276 20.1428 76.509 20.1428C79.742 20.1428 82.318 21.121 84.2367 23.0772C86.1818 25.0071 87.1544 27.5449 87.1544 30.6908C87.1544 33.8103 86.1818 36.3085 84.2367 38.1854C82.318 40.0624 79.742 41.0009 76.509 41.0009C73.2497 41.0009 70.6475 40.0756 68.7024 38.2251C66.7836 36.3481 65.8242 33.8367 65.8242 30.6908ZM70.2006 30.9287C70.2006 32.9114 70.7526 34.5108 71.8566 35.7269C72.9606 36.9165 74.5114 37.5113 76.509 37.5113C78.4541 37.5113 79.9786 36.9033 81.0826 35.6872C82.2128 34.4712 82.7779 32.8586 82.7779 30.8494C82.7779 28.6288 82.2128 26.8972 81.0826 25.6547C79.9523 24.4122 78.4147 23.791 76.4696 23.791C74.5245 23.791 72.9868 24.4387 71.8566 25.734C70.7526 27.003 70.2006 28.7345 70.2006 30.9287Z" fill="#036CC5"/>
<path d="M92.0955 39.5337C92.0166 33.189 91.9903 27.2145 92.0166 21.61C92.0166 20.9227 92.3583 20.5526 93.0417 20.4997H95.4468C96.0776 20.5526 96.4193 20.9095 96.4719 21.5704V23.2755C98.0753 21.187 100.178 20.1428 102.78 20.1428C105.33 20.1428 107.341 20.9359 108.813 22.5221C110.285 24.0818 111.047 26.3421 111.099 29.3029C111.152 32.766 111.139 36.1763 111.06 39.5337C111.06 39.8245 110.955 40.0756 110.745 40.2871C110.561 40.4986 110.324 40.6175 110.035 40.644C109.325 40.6968 108.616 40.6968 107.906 40.644C107.196 40.5911 106.841 40.2078 106.841 39.494C106.841 33.5723 106.828 30.2678 106.802 29.5805C106.749 27.7564 106.329 26.3553 105.54 25.3772C104.778 24.399 103.543 23.91 101.834 23.91C99.7049 23.91 97.9307 24.8484 96.5113 26.7254C96.4588 32.4885 96.4062 36.7579 96.3536 39.5337C96.3536 40.221 96.0119 40.5911 95.3285 40.644C94.6188 40.6968 93.896 40.6968 93.16 40.644C92.4503 40.5911 92.0955 40.221 92.0955 39.5337Z" fill="#036CC5"/>
<path d="M126.522 41.0009C123.052 41.0009 120.424 40.0624 118.636 38.1854C116.849 36.282 115.955 33.7309 115.955 30.5322C115.955 27.4656 116.902 24.9674 118.794 23.0376C120.687 21.1077 123.079 20.1428 125.97 20.1428C127.626 20.1428 129.098 20.4072 130.386 20.9359C131.7 21.4646 132.738 22.1652 133.5 23.0376C134.263 23.91 134.854 24.8484 135.275 25.853C135.722 26.8311 135.998 27.8754 136.103 28.9857C136.313 31.2327 135.38 32.3695 133.303 32.3959L120.45 32.5942C120.634 34.0217 121.212 35.1849 122.185 36.0838C123.157 36.9561 124.603 37.3923 126.522 37.3923C128.073 37.3923 129.781 36.8768 131.647 35.8458C131.779 35.7401 131.963 35.6872 132.199 35.6872C132.436 35.6872 132.633 35.7533 132.791 35.8855C133.343 36.2292 133.868 36.6786 134.368 37.2337C134.736 37.7096 134.696 38.1325 134.25 38.5027C132.41 40.1681 129.834 41.0009 126.522 41.0009ZM126.009 23.791C124.327 23.791 123.013 24.2933 122.067 25.2979C121.147 26.276 120.608 27.5713 120.45 29.1839L131.687 29.065C131.424 27.4788 130.872 26.2099 130.031 25.2582C129.19 24.2801 127.849 23.791 126.009 23.791Z" fill="#036CC5"/>
<path d="M141.151 21.6496C141.151 20.9358 141.493 20.5525 142.176 20.4996H144.582C145.291 20.5525 145.646 20.9358 145.646 21.6496C145.699 26.0115 145.646 31.9728 145.488 39.5335C145.436 40.2209 145.094 40.591 144.463 40.6439C143.754 40.6967 143.044 40.6967 142.334 40.6439C141.651 40.591 141.309 40.2209 141.309 39.5335C141.309 38.5818 141.283 35.9382 141.23 31.6027C141.178 27.2672 141.151 23.9495 141.151 21.6496ZM143.478 17.248C142.715 17.248 142.098 17.0365 141.624 16.6135C141.151 16.1905 140.915 15.5957 140.915 14.8291C140.915 14.0624 141.151 13.4676 141.624 13.0446C142.098 12.6216 142.715 12.4102 143.478 12.4102C144.214 12.4102 144.818 12.6216 145.291 13.0446C145.764 13.4676 146.001 14.0624 146.001 14.8291C146.001 15.5957 145.764 16.1905 145.291 16.6135C144.818 17.0365 144.214 17.248 143.478 17.248Z" fill="#036CC5"/>
<defs>
<filter id="filter0_dii_3754_36817" x="0" y="0" width="42.082" height="44" filterUnits="userSpaceOnUse" color-interpolation-filters="sRGB">
<feFlood flood-opacity="0" result="BackgroundImageFix"/>
<feColorMatrix in="SourceAlpha" type="matrix" values="0 0 0 0 0 0 0 0 0 0 0 0 0 0 0 0 0 0 127 0" result="hardAlpha"/>
<feOffset dy="1"/>
<feGaussianBlur stdDeviation="1"/>
<feComposite in2="hardAlpha" operator="out"/>
<feColorMatrix type="matrix" values="0 0 0 0 0 0 0 0 0 0 0 0 0 0 0 0 0 0 0.15 0"/>
<feBlend mode="normal" in2="BackgroundImageFix" result="effect1_dropShadow_3754_36817"/>
<feBlend mode="normal" in="SourceGraphic" in2="effect1_dropShadow_3754_36817" result="shape"/>
<feColorMatrix in="SourceAlpha" type="matrix" values="0 0 0 0 0 0 0 0 0 0 0 0 0 0 0 0 0 0 127 0" result="hardAlpha"/>
<feOffset dy="-1"/>
<feGaussianBlur stdDeviation="2"/>
<feComposite in2="hardAlpha" operator="arithmetic" k2="-1" k3="1"/>
<feColorMatrix type="matrix" values="0 0 0 0 0 0 0 0 0 0 0 0 0 0 0 0 0 0 0.25 0"/>
<feBlend mode="normal" in2="shape" result="effect2_innerShadow_3754_36817"/>
<feColorMatrix in="SourceAlpha" type="matrix" values="0 0 0 0 0 0 0 0 0 0 0 0 0 0 0 0 0 0 127 0" result="hardAlpha"/>
<feOffset dy="3"/>
<feGaussianBlur stdDeviation="1.5"/>
<feComposite in2="hardAlpha" operator="arithmetic" k2="-1" k3="1"/>
<feColorMatrix type="matrix" values="0 0 0 0 1 0 0 0 0 1 0 0 0 0 1 0 0 0 0.25 0"/>
<feBlend mode="normal" in2="effect2_innerShadow_3754_36817" result="effect3_innerShadow_3754_36817"/>
</filter>
<filter id="filter1_dii_3754_36817" x="31.7031" y="0" width="31.7656" height="44" filterUnits="userSpaceOnUse" color-interpolation-filters="sRGB">
<feFlood flood-opacity="0" result="BackgroundImageFix"/>
<feColorMatrix in="SourceAlpha" type="matrix" values="0 0 0 0 0 0 0 0 0 0 0 0 0 0 0 0 0 0 127 0" result="hardAlpha"/>
<feOffset dy="1"/>
<feGaussianBlur stdDeviation="1"/>
<feComposite in2="hardAlpha" operator="out"/>
<feColorMatrix type="matrix" values="0 0 0 0 0 0 0 0 0 0 0 0 0 0 0 0 0 0 0.15 0"/>
<feBlend mode="normal" in2="BackgroundImageFix" result="effect1_dropShadow_3754_36817"/>
<feBlend mode="normal" in="SourceGraphic" in2="effect1_dropShadow_3754_36817" result="shape"/>
<feColorMatrix in="SourceAlpha" type="matrix" values="0 0 0 0 0 0 0 0 0 0 0 0 0 0 0 0 0 0 127 0" result="hardAlpha"/>
<feOffset dy="-1"/>
<feGaussianBlur stdDeviation="2"/>
<feComposite in2="hardAlpha" operator="arithmetic" k2="-1" k3="1"/>
<feColorMatrix type="matrix" values="0 0 0 0 0 0 0 0 0 0 0 0 0 0 0 0 0 0 0.25 0"/>
<feBlend mode="normal" in2="shape" result="effect2_innerShadow_3754_36817"/>
<feColorMatrix in="SourceAlpha" type="matrix" values="0 0 0 0 0 0 0 0 0 0 0 0 0 0 0 0 0 0 127 0" result="hardAlpha"/>
<feOffset dy="3"/>
<feGaussianBlur stdDeviation="1.5"/>
<feComposite in2="hardAlpha" operator="arithmetic" k2="-1" k3="1"/>
<feColorMatrix type="matrix" values="0 0 0 0 1 0 0 0 0 1 0 0 0 0 1 0 0 0 0.25 0"/>
<feBlend mode="normal" in2="effect2_innerShadow_3754_36817" result="effect3_innerShadow_3754_36817"/>
</filter>
</defs>
</svg>
