<svg width="29" height="22" viewBox="0 0 29 22" fill="none" xmlns="http://www.w3.org/2000/svg">
<path d="M2.45386 21.8076L6.06257 21.3005L9.04179 12.2081C9.04179 12.2081 14.9062 20.0576 15.079 20.0333C15.2517 20.009 17.7899 13.6306 17.7899 13.6306L9.43415 2.29241C8.04823 0.824977 5.99729 1.16099 5.02841 2.9116L0.154331 18.8015C-0.519057 20.6318 1.13398 21.9944 2.45284 21.809L2.45386 21.8076Z" fill="white" fill-opacity="0.16"/>
<path d="M13.4277 4.81289L23.3435 18.873L26.9873 18.3609C28.2947 18.1772 28.9795 15.9801 28.2946 14.8445L19.1576 0.913922C17.7851 -0.556476 15.6956 -0.180689 14.8048 1.52567L13.4265 4.81305L13.4277 4.81289Z" fill="white" fill-opacity="0.16"/>
</svg>
