<svg width="48" height="38" viewBox="0 0 48 38" fill="none" xmlns="http://www.w3.org/2000/svg">
<path d="M4.22574 37.3433L10.277 36.3329L14.8959 20.9014C14.8959 20.9014 25.1065 33.857 25.3962 33.8086C25.6859 33.7602 29.6803 22.9153 29.6803 22.9153L15.1254 4.19664C12.7292 1.78722 9.29213 2.44183 7.7376 5.43013L0.225111 32.384C-0.828648 35.4936 2.01254 37.7149 4.22408 37.3456L4.22574 37.3433Z" fill="#014176" fill-opacity="0.3"/>
<path d="M21.9559 8.26498L39.2547 31.4968L45.3648 30.4766C47.5571 30.1106 48.6141 26.3832 47.4121 24.5018L31.4296 1.45422C29.056 -0.960767 25.5557 -0.237544 24.1306 2.67289L21.9539 8.26531L21.9559 8.26498Z" fill="#014176" fill-opacity="0.3"/>
</svg>
