<svg width="30" height="25" viewBox="0 0 30 25" fill="none" xmlns="http://www.w3.org/2000/svg">
<path d="M1.64979 17.8544L5.33295 18.8413L11.9198 11.3018C11.9198 11.3018 14.3591 21.2599 14.5354 21.3071C14.7117 21.3543 19.7641 16.2485 19.7641 16.2485L16.3517 1.91169C15.6168 -0.0683226 13.504 -0.583196 11.855 0.706822L0.66398 14.0188C-0.732933 15.5065 0.302168 17.4946 1.64824 17.8553L1.64979 17.8544Z" fill="#014176" fill-opacity="0.3"/>
<path d="M19.1677 5.97209L22.97 23.5684L26.6889 24.5649C28.0233 24.9225 29.5811 23.0863 29.3857 21.7125L26.2806 4.55933C25.5599 2.58196 23.3937 2.08962 21.838 3.36894L19.1665 5.97176L19.1677 5.97209Z" fill="#014176" fill-opacity="0.3"/>
</svg>
