<svg width="24" height="22" viewBox="0 0 24 22" fill="none" xmlns="http://www.w3.org/2000/svg">
<path d="M2.52555 21.321L5.52665 20.2493L6.47245 11.936C6.47245 11.936 12.8813 17.623 13.0249 17.5717C13.1686 17.5204 14.2159 11.6094 14.2159 11.6094L5.05733 3.37442C3.61121 2.3624 1.91403 3.01238 1.39339 4.68279L0.025222 19.1525C-0.228253 20.839 1.42811 21.714 2.52492 21.3223L2.52555 21.321Z" fill="#014176" fill-opacity="0.3"/>
<path d="M8.92274 4.8278L19.8982 15.1184L22.9285 14.0363C24.0157 13.648 24.2142 11.6454 23.4271 10.7938L13.1415 0.47661C11.7064 -0.540329 9.98319 0.150535 9.52161 1.76926L8.92175 4.82815L8.92274 4.8278Z" fill="#014176" fill-opacity="0.3"/>
</svg>
