<svg width="80" height="64" viewBox="0 0 80 64" fill="none" xmlns="http://www.w3.org/2000/svg">
<path d="M4.79354 49.8083L14.8216 51.8617L31.2621 30.6012C31.2621 30.6012 39.3968 56.8939 39.8769 56.9922C40.3569 57.0905 53.0763 42.5977 53.0763 42.5977L41.631 4.72735C39.3439 -0.460491 33.5997 -1.50108 29.3881 2.2204L1.53629 39.6884C-1.96822 43.899 1.12461 49.0605 4.78954 49.8109L4.79354 49.8083Z" fill="white" fill-opacity="0.16"/>
<path d="M49.8287 15.1559L62.8418 61.6982L72.9673 63.7716C76.6004 64.5155 80.4801 59.345 79.7361 55.6951L68.6623 10.2286C66.4136 5.04555 60.5298 4.07391 56.5665 7.75174L49.8254 15.1553L49.8287 15.1559Z" fill="white" fill-opacity="0.16"/>
</svg>
