<svg width="52" height="43" viewBox="0 0 52 43" fill="none" xmlns="http://www.w3.org/2000/svg">
<path d="M2.98468 31.7751L9.47654 33.3529L20.7053 19.877C20.7053 19.877 25.3858 37.2196 25.6966 37.2951C26.0073 37.3706 34.6481 28.2203 34.6481 28.2203L28.0836 3.24763C26.7152 -0.190478 22.9933 -1.0058 20.1579 1.32134L1.10083 25.0971C-1.28508 27.76 0.609443 31.2001 2.98201 31.7768L2.98468 31.7751Z" fill="white" fill-opacity="0.16"/>
<path d="M33.1825 10.2445L40.5633 40.9106L47.1182 42.5038C49.4702 43.0754 52.1236 39.7952 51.7251 37.3969L45.5836 7.47856C44.2402 4.04452 40.4256 3.27085 37.7532 5.57543L33.1803 10.244L33.1825 10.2445Z" fill="white" fill-opacity="0.16"/>
</svg>
